<mxfile host="app.diagrams.net" modified="2024-01-08T09:32:20.526Z" agent="Mozilla/5.0 (Windows NT 10.0; Win64; x64) AppleWebKit/537.36 (KHTML, like Gecko) Chrome/120.0.0.0 Safari/537.36" etag="rApM-teOInm8jVLhifqL" version="22.1.17" type="github">
  <diagram name="第 1 页" id="dSuGZEJca911ffpz1844">
    <mxGraphModel dx="1360" dy="786" grid="1" gridSize="10" guides="1" tooltips="1" connect="1" arrows="1" fold="1" page="1" pageScale="1" pageWidth="1100" pageHeight="850" math="0" shadow="0">
      <root>
        <mxCell id="0" />
        <mxCell id="1" parent="0" />
        <mxCell id="2weD-Q7b0_95b-ctS3T--3" value="" style="edgeStyle=orthogonalEdgeStyle;rounded=0;orthogonalLoop=1;jettySize=auto;html=1;" edge="1" parent="1" source="2weD-Q7b0_95b-ctS3T--1" target="2weD-Q7b0_95b-ctS3T--2">
          <mxGeometry relative="1" as="geometry" />
        </mxCell>
        <mxCell id="2weD-Q7b0_95b-ctS3T--1" value="解析请求" style="rounded=0;whiteSpace=wrap;html=1;" vertex="1" parent="1">
          <mxGeometry x="410" y="30" width="120" height="60" as="geometry" />
        </mxCell>
        <mxCell id="2weD-Q7b0_95b-ctS3T--5" value="" style="edgeStyle=orthogonalEdgeStyle;rounded=0;orthogonalLoop=1;jettySize=auto;html=1;" edge="1" parent="1" source="2weD-Q7b0_95b-ctS3T--2" target="2weD-Q7b0_95b-ctS3T--4">
          <mxGeometry relative="1" as="geometry" />
        </mxCell>
        <mxCell id="2weD-Q7b0_95b-ctS3T--12" value="" style="edgeStyle=orthogonalEdgeStyle;rounded=0;orthogonalLoop=1;jettySize=auto;html=1;" edge="1" parent="1" source="2weD-Q7b0_95b-ctS3T--2" target="2weD-Q7b0_95b-ctS3T--11">
          <mxGeometry relative="1" as="geometry" />
        </mxCell>
        <mxCell id="2weD-Q7b0_95b-ctS3T--2" value="判断原始值是否存在" style="rhombus;whiteSpace=wrap;html=1;rounded=0;" vertex="1" parent="1">
          <mxGeometry x="430" y="160" width="80" height="80" as="geometry" />
        </mxCell>
        <mxCell id="2weD-Q7b0_95b-ctS3T--4" value="根据规则创建原始值表" style="whiteSpace=wrap;html=1;rounded=0;" vertex="1" parent="1">
          <mxGeometry x="570" y="170" width="120" height="60" as="geometry" />
        </mxCell>
        <mxCell id="2weD-Q7b0_95b-ctS3T--6" value="否" style="text;strokeColor=none;align=center;fillColor=none;html=1;verticalAlign=middle;whiteSpace=wrap;rounded=0;" vertex="1" parent="1">
          <mxGeometry x="510" y="170" width="60" height="30" as="geometry" />
        </mxCell>
        <mxCell id="2weD-Q7b0_95b-ctS3T--14" value="" style="edgeStyle=orthogonalEdgeStyle;rounded=0;orthogonalLoop=1;jettySize=auto;html=1;" edge="1" parent="1" source="2weD-Q7b0_95b-ctS3T--11" target="2weD-Q7b0_95b-ctS3T--13">
          <mxGeometry relative="1" as="geometry" />
        </mxCell>
        <mxCell id="2weD-Q7b0_95b-ctS3T--11" value="判断原始值数据是否存在" style="rhombus;whiteSpace=wrap;html=1;rounded=0;" vertex="1" parent="1">
          <mxGeometry x="430" y="280" width="80" height="80" as="geometry" />
        </mxCell>
        <mxCell id="2weD-Q7b0_95b-ctS3T--16" value="" style="edgeStyle=orthogonalEdgeStyle;rounded=0;orthogonalLoop=1;jettySize=auto;html=1;" edge="1" parent="1" source="2weD-Q7b0_95b-ctS3T--13" target="2weD-Q7b0_95b-ctS3T--15">
          <mxGeometry relative="1" as="geometry" />
        </mxCell>
        <mxCell id="2weD-Q7b0_95b-ctS3T--13" value="插入原始值数据" style="whiteSpace=wrap;html=1;rounded=0;" vertex="1" parent="1">
          <mxGeometry x="410" y="390" width="120" height="60" as="geometry" />
        </mxCell>
        <mxCell id="2weD-Q7b0_95b-ctS3T--18" value="" style="edgeStyle=orthogonalEdgeStyle;rounded=0;orthogonalLoop=1;jettySize=auto;html=1;" edge="1" parent="1" source="2weD-Q7b0_95b-ctS3T--15" target="2weD-Q7b0_95b-ctS3T--17">
          <mxGeometry relative="1" as="geometry" />
        </mxCell>
        <mxCell id="2weD-Q7b0_95b-ctS3T--22" value="" style="edgeStyle=orthogonalEdgeStyle;rounded=0;orthogonalLoop=1;jettySize=auto;html=1;" edge="1" parent="1" source="2weD-Q7b0_95b-ctS3T--15" target="2weD-Q7b0_95b-ctS3T--21">
          <mxGeometry relative="1" as="geometry" />
        </mxCell>
        <mxCell id="2weD-Q7b0_95b-ctS3T--15" value="判断算法值表是否存在" style="rhombus;whiteSpace=wrap;html=1;rounded=0;" vertex="1" parent="1">
          <mxGeometry x="430" y="520" width="80" height="80" as="geometry" />
        </mxCell>
        <mxCell id="2weD-Q7b0_95b-ctS3T--17" value="根据规则创建算值表" style="whiteSpace=wrap;html=1;rounded=0;" vertex="1" parent="1">
          <mxGeometry x="570" y="530" width="120" height="60" as="geometry" />
        </mxCell>
        <mxCell id="2weD-Q7b0_95b-ctS3T--24" value="" style="edgeStyle=orthogonalEdgeStyle;rounded=0;orthogonalLoop=1;jettySize=auto;html=1;" edge="1" parent="1" source="2weD-Q7b0_95b-ctS3T--21" target="2weD-Q7b0_95b-ctS3T--23">
          <mxGeometry relative="1" as="geometry" />
        </mxCell>
        <mxCell id="2weD-Q7b0_95b-ctS3T--26" value="" style="edgeStyle=orthogonalEdgeStyle;rounded=0;orthogonalLoop=1;jettySize=auto;html=1;" edge="1" parent="1" source="2weD-Q7b0_95b-ctS3T--21" target="2weD-Q7b0_95b-ctS3T--25">
          <mxGeometry relative="1" as="geometry" />
        </mxCell>
        <mxCell id="2weD-Q7b0_95b-ctS3T--21" value="判断算法值是否存在" style="rhombus;whiteSpace=wrap;html=1;rounded=0;" vertex="1" parent="1">
          <mxGeometry x="430" y="640" width="80" height="80" as="geometry" />
        </mxCell>
        <mxCell id="2weD-Q7b0_95b-ctS3T--23" value="插入新算法之" style="whiteSpace=wrap;html=1;rounded=0;" vertex="1" parent="1">
          <mxGeometry x="570" y="650" width="120" height="60" as="geometry" />
        </mxCell>
        <mxCell id="2weD-Q7b0_95b-ctS3T--25" value="更新算法" style="whiteSpace=wrap;html=1;rounded=0;" vertex="1" parent="1">
          <mxGeometry x="410" y="760" width="120" height="60" as="geometry" />
        </mxCell>
        <mxCell id="2weD-Q7b0_95b-ctS3T--27" value="否" style="text;strokeColor=none;align=center;fillColor=none;html=1;verticalAlign=middle;whiteSpace=wrap;rounded=0;" vertex="1" parent="1">
          <mxGeometry x="510" y="530" width="60" height="30" as="geometry" />
        </mxCell>
        <mxCell id="2weD-Q7b0_95b-ctS3T--28" value="否" style="text;strokeColor=none;align=center;fillColor=none;html=1;verticalAlign=middle;whiteSpace=wrap;rounded=0;" vertex="1" parent="1">
          <mxGeometry x="510" y="650" width="60" height="30" as="geometry" />
        </mxCell>
        <mxCell id="2weD-Q7b0_95b-ctS3T--29" value="是" style="text;strokeColor=none;align=center;fillColor=none;html=1;verticalAlign=middle;whiteSpace=wrap;rounded=0;" vertex="1" parent="1">
          <mxGeometry x="480" y="240" width="60" height="30" as="geometry" />
        </mxCell>
        <mxCell id="2weD-Q7b0_95b-ctS3T--30" value="是" style="text;strokeColor=none;align=center;fillColor=none;html=1;verticalAlign=middle;whiteSpace=wrap;rounded=0;" vertex="1" parent="1">
          <mxGeometry x="480" y="350" width="60" height="30" as="geometry" />
        </mxCell>
        <mxCell id="2weD-Q7b0_95b-ctS3T--31" value="是" style="text;strokeColor=none;align=center;fillColor=none;html=1;verticalAlign=middle;whiteSpace=wrap;rounded=0;" vertex="1" parent="1">
          <mxGeometry x="470" y="600" width="60" height="30" as="geometry" />
        </mxCell>
        <mxCell id="2weD-Q7b0_95b-ctS3T--32" value="是" style="text;strokeColor=none;align=center;fillColor=none;html=1;verticalAlign=middle;whiteSpace=wrap;rounded=0;" vertex="1" parent="1">
          <mxGeometry x="470" y="710" width="60" height="30" as="geometry" />
        </mxCell>
      </root>
    </mxGraphModel>
  </diagram>
</mxfile>
